<?xml version="1.0" encoding="UTF-8"?>
<svg width="1536px" height="1792px" viewBox="0 0 1536 1792" version="1.1" xmlns="http://www.w3.org/2000/svg" xmlns:xlink="http://www.w3.org/1999/xlink">
    <!-- Generator: Sketch 45 (43475) - http://www.bohemiancoding.com/sketch -->
    <title>icon-pdf</title>
    <desc>Created with Sketch.</desc>
    <defs></defs>
    <g id="Page-1" stroke="none" stroke-width="1" fill="none" fill-rule="evenodd">
        <g id="icon-pdf" fill-rule="nonzero" fill="#FFFFFF">
            <path d="M1468,380 C1486.66667,398.666667 1502.66667,424 1516,456 C1529.33333,488 1536,517.333333 1536,544 L1536,1696 C1536,1722.66667 1526.66667,1745.33333 1508,1764 C1489.33333,1782.66667 1466.66667,1792 1440,1792 L96,1792 C69.3333333,1792 46.6666667,1782.66667 28,1764 C9.33333333,1745.33333 0,1722.66667 0,1696 L0,96 C0,69.3333333 9.33333333,46.6666667 28,28 C46.6666667,9.33333333 69.3333333,0 96,0 L992,0 C1018.66667,0 1048,6.66666667 1080,20 C1112,33.3333333 1137.33333,49.3333333 1156,68 L1468,380 Z M1024,136 L1024,512 L1400,512 C1393.33333,492.666667 1386,479 1378,471 L1065,158 C1057,150 1043.33333,142.666667 1024,136 Z M1408,1664 L1408,640 L992,640 C965.333333,640 942.666667,630.666667 924,612 C905.333333,593.333333 896,570.666667 896,544 L896,128 L128,128 L128,1664 L1408,1664 Z M894,1071 C916,1088.33333 944,1107 978,1127 C1017.33333,1122.33333 1056.33333,1120 1095,1120 C1193,1120 1252,1136.33333 1272,1169 C1282.66667,1183.66667 1283.33333,1201 1274,1221 C1274,1221.66667 1273.66667,1222.33333 1273,1223 L1271,1225 L1271,1226 C1267,1251.33333 1243.33333,1264 1200,1264 C1168,1264 1129.66667,1257.33333 1085,1244 C1040.33333,1230.66667 997,1213 955,1191 C807.666667,1207 677,1234.66667 563,1274 C461,1448.66667 380.333333,1536 321,1536 C311,1536 301.666667,1533.66667 293,1529 L269,1517 C268.333333,1516.33333 266.333333,1514.66667 263,1512 C256.333333,1505.33333 254.333333,1493.33333 257,1476 C263,1449.33333 281.666667,1418.83333 313,1384.5 C344.333333,1350.16667 388.333333,1318 445,1288 C454.333333,1282 462,1284 468,1294 C469.333333,1295.33333 470,1296.66667 470,1298 C504.666667,1241.33333 540.333333,1175.66667 577,1101 C622.333333,1010.33333 657,923 681,839 C665,784.333333 654.833333,731.166667 650.5,679.5 C646.166667,627.833333 648.333333,585.333333 657,552 C664.333333,525.333333 678.333333,512 699,512 L721,512 C736.333333,512 748,517 756,527 C768,541 771,563.666667 765,595 C763.666667,599 762.333333,601.666667 761,603 C761.666667,605 762,607.666667 762,611 L762,641 C760.666667,723 756,787 748,833 C784.666667,942.333333 833.333333,1021.66667 894,1071 Z M318,1482 C352.666667,1466 398.333333,1413.33333 455,1324 C421,1350.66667 391.833333,1378.66667 367.5,1408 C343.166667,1437.33333 326.666667,1462 318,1482 Z M716,562 C706,590 705.333333,634 714,694 C714.666667,689.333333 717,674.666667 721,650 C721,648 723.333333,633.666667 728,607 C728.666667,604.333333 730,601.666667 732,599 C731.333333,598.333333 731,597.666667 731,597 C730.333333,595.666667 730,594.666667 730,594 C729.333333,579.333333 725,567.333333 717,558 C717,558.666667 716.666667,559.333333 716,560 L716,562 Z M592,1223 C682,1187 776.666667,1160 876,1142 C874.666667,1141.33333 870.333333,1138.16667 863,1132.5 C855.666667,1126.83333 850.333333,1122.33333 847,1119 C796.333333,1074.33333 754,1015.66667 720,943 C702,1000.33333 674.333333,1066 637,1140 C617,1177.33333 602,1205 592,1223 Z M1238,1207 C1222,1191 1175.33333,1183 1098,1183 C1148.66667,1201.66667 1190,1211 1222,1211 C1231.33333,1211 1237.33333,1210.66667 1240,1210 C1240,1209.33333 1239.33333,1208.33333 1238,1207 Z" id="Shape"></path>
        </g>
    </g>
</svg>