<?xml version="1.0" encoding="UTF-8"?>
<svg width="1632px" height="1632px" viewBox="0 0 1632 1632" version="1.1" xmlns="http://www.w3.org/2000/svg" xmlns:xlink="http://www.w3.org/1999/xlink">
    <!-- Generator: Sketch 45 (43475) - http://www.bohemiancoding.com/sketch -->
    <title>icon-link</title>
    <desc>Created with Sketch.</desc>
    <defs></defs>
    <g id="Page-1" stroke="none" stroke-width="1" fill="none" fill-rule="evenodd">
        <g id="icon-link" fill-rule="nonzero" fill="#FFFFFF">
            <path d="M1440,1200 C1440,1173.33333 1430.66667,1150.66667 1412,1132 L1204,924 C1185.33333,905.333333 1162.66667,896 1136,896 C1108,896 1084,906.666667 1064,928 C1066,930 1072.33333,936.166667 1083,946.5 C1093.66667,956.833333 1100.83333,964 1104.5,968 C1108.16667,972 1113.16667,978.333333 1119.5,987 C1125.83333,995.666667 1130.16667,1004.16667 1132.5,1012.5 C1134.83333,1020.83333 1136,1030 1136,1040 C1136,1066.66667 1126.66667,1089.33333 1108,1108 C1089.33333,1126.66667 1066.66667,1136 1040,1136 C1030,1136 1020.83333,1134.83333 1012.5,1132.5 C1004.16667,1130.16667 995.666667,1125.83333 987,1119.5 C978.333333,1113.16667 972,1108.16667 968,1104.5 C964,1100.83333 956.833333,1093.66667 946.5,1083 C936.166667,1072.33333 930,1066 928,1064 C906,1084.66667 895,1109 895,1137 C895,1163.66667 904.333333,1186.33333 923,1205 L1129,1412 C1147,1430 1169.66667,1439 1197,1439 C1223.66667,1439 1246.33333,1430.33333 1265,1413 L1412,1267 C1430.66667,1248.33333 1440,1226 1440,1200 Z M737,495 C737,468.333333 727.666667,445.666667 709,427 L503,220 C484.333333,201.333333 461.666667,192 435,192 C409,192 386.333333,201 367,219 L220,365 C201.333333,383.666667 192,406 192,432 C192,458.666667 201.333333,481.333333 220,500 L428,708 C446,726 468.666667,735 496,735 C524,735 548,724.666667 568,704 C566,702 559.666667,695.833333 549,685.5 C538.333333,675.166667 531.166667,668 527.5,664 C523.833333,660 518.833333,653.666667 512.5,645 C506.166667,636.333333 501.833333,627.833333 499.5,619.5 C497.166667,611.166667 496,602 496,592 C496,565.333333 505.333333,542.666667 524,524 C542.666667,505.333333 565.333333,496 592,496 C602,496 611.166667,497.166667 619.5,499.5 C627.833333,501.833333 636.333333,506.166667 645,512.5 C653.666667,518.833333 660,523.833333 664,527.5 C668,531.166667 675.166667,538.333333 685.5,549 C695.833333,559.666667 702,566 704,568 C726,547.333333 737,523 737,495 Z M1632,1200 C1632,1280 1603.66667,1347.66667 1547,1403 L1400,1549 C1344.66667,1604.33333 1277,1632 1197,1632 C1116.33333,1632 1048.33333,1603.66667 993,1547 L787,1340 C731.666667,1284.66667 704,1217 704,1137 C704,1055 733.333333,985.333333 792,928 L704,840 C646.666667,898.666667 577.333333,928 496,928 C416,928 348,900 292,844 L84,636 C28,580 0,512 0,432 C0,352 28.3333333,284.333333 85,229 L232,83 C287.333333,27.6666667 355,0 435,0 C515.666667,0 583.666667,28.3333333 639,85 L845,292 C900.333333,347.333333 928,415 928,495 C928,577 898.666667,646.666667 840,704 L928,792 C985.333333,733.333333 1054.66667,704 1136,704 C1216,704 1284,732 1340,788 L1548,996 C1604,1052 1632,1120 1632,1200 Z" id="Shape"></path>
        </g>
    </g>
</svg>